<svg id="レイヤー_1" data-name="レイヤー 1" xmlns="http://www.w3.org/2000/svg" viewBox="0 0 256 256"><defs><style>.cls-1{fill:#fff;}.cls-2{fill:#1e3446;}.cls-3{fill:#276382;}</style></defs><polygon class="cls-1" points="20.48 65.52 20.48 190.06 128.34 252.34 236.2 190.06 236.2 65.52 128.34 3.25 20.48 65.52"/><polygon class="cls-2" points="61.07 88.96 61.07 166.63 128.34 205.47 195.61 166.63 195.61 88.96 128.34 50.12 61.07 88.96"/><polygon class="cls-1" points="83.26 105.81 83.26 156.71 125.38 181.02 125.38 81.49 83.26 105.81"/><polygon class="cls-1" points="159.7 147.72 159.7 114.91 173.42 118.99 173.42 105.81 131.31 81.49 131.31 181.02 173.42 156.71 173.42 143.63 159.7 147.72"/><polygon class="cls-3" points="55 88.91 20.48 68.99 20.48 186.6 55 166.67 55 88.91"/><polygon class="cls-3" points="125.34 44.84 125.34 4.98 23.48 63.79 58 83.72 125.34 44.84"/><polygon class="cls-3" points="198.68 83.72 233.2 63.79 131.34 4.98 131.34 44.84 198.68 83.72"/><polygon class="cls-3" points="201.68 166.67 236.2 186.6 236.2 68.99 201.68 88.91 201.68 166.67"/><polygon class="cls-3" points="131.34 210.75 131.34 250.6 233.2 191.8 198.68 171.87 131.34 210.75"/><polygon class="cls-3" points="58 171.87 23.48 191.8 125.34 250.6 125.34 210.75 58 171.87"/></svg>